<?xml version="1.0" encoding="UTF-8" standalone="no" ?>
<!DOCTYPE svg PUBLIC "-//W3C//DTD SVG 1.1//EN" "http://www.w3.org/Graphics/SVG/1.1/DTD/svg11.dtd">
<svg xmlns="http://www.w3.org/2000/svg" xmlns:xlink="http://www.w3.org/1999/xlink" version="1.1" width="50" height="50" viewBox="-2.78 -2.78 50 50" xml:space="preserve">
<desc>Created with Fabric.js 5.2.4</desc>
<defs>
</defs>
<rect x="0" y="0" width="100%" height="100%" fill="transparent"></rect>
<g transform="matrix(Infinity NaN NaN Infinity 0 0)" id="7f5d9324-5038-4db4-a491-0dfe1ad7d46e"  >
</g>
<g transform="matrix(1 0 0 1 25 25)" id="dffd287f-be82-449d-988d-03a7fa1e9aee"  >
<rect style="stroke: none; stroke-width: 1; stroke-dasharray: none; stroke-linecap: butt; stroke-dashoffset: 0; stroke-linejoin: miter; stroke-miterlimit: 4; fill: rgb(255,255,255); fill-rule: nonzero; opacity: 1;" vector-effect="non-scaling-stroke"  x="-25" y="-25" rx="0" ry="0" width="50" height="50" />
</g>
<g transform="matrix(0.38 0 0 0.38 25 25)"  >
<g style="" vector-effect="non-scaling-stroke"   >
		<g transform="matrix(0.1 0 0 -0.1 0 0)"  >
<path style="stroke: none; stroke-width: 1; stroke-dasharray: none; stroke-linecap: butt; stroke-dashoffset: 0; stroke-linejoin: miter; stroke-miterlimit: 4; fill: rgb(0,0,0); fill-rule: nonzero; opacity: 1;" vector-effect="non-scaling-stroke"  transform=" translate(-750, -750)" d="M 0 795 C 0 100 0 90 19 107 C 41 125 110 136 110 121 C 110 116 118 109 128 106 C 147 100 155 70 138 70 C 133 70 132 65 135 59 C 139 53 148 51 156 54 C 170 59 165 36 147 13 C 140 3 275 0 819 0 L 1500 0 L 1500 366 L 1500 732 L 1469 726 C 1452 723 1433 720 1428 720 C 1423 720 1422 715 1425 710 C 1428 704 1422 700 1411 700 C 1399 700 1390 706 1390 714 C 1390 731 1358 794 1348 798 C 1343 800 1340 814 1340 829 C 1340 852 1348 861 1386 881 L 1432 904 L 1449 883 C 1458 871 1473 850 1482 838 C 1498 816 1499 832 1500 1158 L 1500 1500 L 750 1500 L 0 1500 L 0 795 z M 900 1371 C 979 1350 1046 1325 1064 1308 C 1075 1298 1090 1290 1097 1290 C 1104 1290 1110 1283 1110 1275 C 1110 1267 1106 1260 1102 1260 C 1091 1260 1070 1214 1070 1192 C 1070 1183 1079 1164 1090 1150 C 1101 1136 1110 1117 1110 1108 C 1110 1098 1115 1090 1121 1090 C 1126 1090 1129 1086 1125 1081 C 1122 1075 1133 1061 1149 1049 C 1165 1037 1188 1006 1200 981 C 1221 933 1241 898 1251 890 C 1254 887 1257 867 1257 844 C 1257 822 1260 798 1263 793 C 1267 787 1272 756 1275 724 C 1278 692 1286 663 1292 659 C 1308 649 1283 638 1260 645 C 1249 649 1240 647 1240 641 C 1240 635 1247 630 1255 630 C 1276 630 1274 612 1250 598 C 1225 582 1224 564 1247 551 C 1263 543 1261 541 1238 535 C 1218 530 1213 523 1215 504 C 1216 491 1213 480 1208 480 C 1203 480 1201 476 1204 471 C 1208 466 1201 464 1190 467 C 1178 470 1170 467 1170 460 C 1170 453 1163 450 1154 454 C 1140 459 1139 458 1150 445 C 1160 433 1159 430 1144 430 C 1127 429 1128 427 1150 408 C 1170 391 1171 388 1155 394 C 1144 399 1131 403 1125 404 C 1105 409 1035 445 1032 453 C 1027 464 977 461 960 449 C 948 441 953 440 978 443 C 1020 448 1019 436 976 416 C 957 407 938 391 935 380 C 931 369 924 362 919 365 C 902 376 888 359 901 344 C 911 332 910 331 895 336 C 880 342 878 339 883 321 C 888 299 888 299 869 316 C 858 326 850 328 850 322 C 850 315 839 310 825 310 C 811 310 800 306 800 301 C 800 288 731 266 701 268 C 678 270 661 285 660 302 C 660 306 670 319 683 330 C 695 342 701 350 695 349 C 690 348 672 352 657 358 C 642 365 606 369 577 369 C 548 368 499 376 467 386 C 436 395 407 400 403 396 C 399 392 404 372 415 352 C 426 332 434 303 432 288 C 429 262 429 262 394 276 C 375 284 354 288 348 284 C 341 279 340 281 344 289 C 354 305 323 329 293 330 C 275 330 270 336 270 355 C 270 376 265 380 241 380 C 218 380 207 387 193 410 C 183 427 170 438 164 436 C 157 433 149 443 145 457 C 138 485 117 510 101 510 C 95 510 90 517 90 525 C 90 553 89 555 67 563 C 51 569 49 573 59 579 C 69 586 69 592 61 608 C 53 623 53 629 62 632 C 69 635 66 644 52 658 C 33 677 32 681 45 686 C 56 690 57 696 51 704 C 40 717 42 745 53 756 C 57 760 60 774 60 787 C 60 799 65 810 70 810 C 76 810 80 816 80 824 C 80 831 87 851 95 866 C 103 882 110 903 110 912 C 110 921 114 931 119 934 C 124 938 131 958 135 980 C 139 1002 147 1026 153 1033 C 160 1039 172 1058 180 1075 C 188 1091 215 1124 240 1148 C 265 1171 301 1206 320 1224 C 339 1243 366 1261 380 1265 C 394 1269 418 1282 435 1294 C 451 1305 481 1323 500 1334 C 519 1344 537 1356 540 1360 C 556 1384 820 1392 900 1371 z" stroke-linecap="round" />
</g>
		<g transform="matrix(0.1 0 0 -0.1 -36.19 3.89)"  >
<path style="stroke: none; stroke-width: 1; stroke-dasharray: none; stroke-linecap: butt; stroke-dashoffset: 0; stroke-linejoin: miter; stroke-miterlimit: 4; fill: rgb(0,0,0); fill-rule: nonzero; opacity: 1;" vector-effect="non-scaling-stroke"  transform=" translate(-388.09, -711.04)" d="M 423 850 C 412 845 394 828 384 811 C 374 794 363 780 359 780 C 350 780 280 713 279 703 C 269 640 286 591 325 570 C 346 558 351 561 382 596 C 400 617 434 656 458 682 C 494 724 500 737 500 775 C 500 803 493 827 483 840 C 464 862 456 863 423 850 z" stroke-linecap="round" />
</g>
		<g transform="matrix(0.1 0 0 -0.1 10.33 14.53)"  >
<path style="stroke: none; stroke-width: 1; stroke-dasharray: none; stroke-linecap: butt; stroke-dashoffset: 0; stroke-linejoin: miter; stroke-miterlimit: 4; fill: rgb(0,0,0); fill-rule: nonzero; opacity: 1;" vector-effect="non-scaling-stroke"  transform=" translate(-853.33, -604.72)" d="M 790 778 C 790 773 786 771 781 774 C 772 780 740 694 740 663 C 740 652 744 640 748 634 C 753 629 771 586 789 538 C 820 457 824 451 855 446 C 874 442 891 434 894 427 C 897 420 901 424 905 437 C 909 450 916 458 920 455 C 924 453 936 460 946 471 C 975 503 973 611 943 640 C 930 651 920 670 920 681 C 920 706 897 752 875 770 C 856 786 790 792 790 778 z" stroke-linecap="round" />
</g>
</g>
</g>
</svg>